<mxfile host="app.diagrams.net" modified="2022-11-02T09:12:56.497Z" agent="5.0 (Macintosh; Intel Mac OS X 10_15_7) AppleWebKit/537.36 (KHTML, like Gecko) Chrome/106.0.0.0 Safari/537.36" etag="5-3R9MZWZyjWSzHh37dA" version="20.5.1" type="github">
  <diagram id="AnSbP7lbTi8cwMc7m_we" name="Page-1">
    <mxGraphModel dx="561" dy="390" grid="1" gridSize="10" guides="1" tooltips="1" connect="1" arrows="1" fold="1" page="1" pageScale="1" pageWidth="200000" pageHeight="200000" math="0" shadow="0">
      <root>
        <mxCell id="0" />
        <mxCell id="1" parent="0" />
        <mxCell id="15AYqAVxinwd7Ld809hT-1" value="&lt;font style=&quot;font-size: 8px;&quot;&gt;Notification&lt;/font&gt;" style="shape=cylinder3;whiteSpace=wrap;html=1;boundedLbl=1;backgroundOutline=1;size=15;fillColor=#d80073;strokeColor=#A50040;fontColor=#ffffff;" vertex="1" parent="1">
          <mxGeometry x="7809" y="18760" width="60" height="60" as="geometry" />
        </mxCell>
        <mxCell id="15AYqAVxinwd7Ld809hT-2" value="" style="endArrow=classic;html=1;rounded=0;fontSize=8;entryX=0.85;entryY=0;entryDx=0;entryDy=0;entryPerimeter=0;" edge="1" parent="1">
          <mxGeometry width="50" height="50" relative="1" as="geometry">
            <mxPoint x="7840" y="18575" as="sourcePoint" />
            <mxPoint x="7840" y="18759" as="targetPoint" />
          </mxGeometry>
        </mxCell>
        <mxCell id="15AYqAVxinwd7Ld809hT-3" value="&lt;font style=&quot;font-size: 5px;&quot;&gt;USER ID&lt;/font&gt;" style="ellipse;whiteSpace=wrap;html=1;fontSize=8;fillColor=#0050ef;fontColor=#ffffff;strokeColor=#001DBC;" vertex="1" parent="1">
          <mxGeometry x="7819" y="18593" width="40" height="30" as="geometry" />
        </mxCell>
        <mxCell id="15AYqAVxinwd7Ld809hT-4" value="" style="endArrow=classic;html=1;rounded=0;fontSize=5;" edge="1" parent="1">
          <mxGeometry width="50" height="50" relative="1" as="geometry">
            <mxPoint x="7860" y="18610" as="sourcePoint" />
            <mxPoint x="7900" y="18610" as="targetPoint" />
          </mxGeometry>
        </mxCell>
        <mxCell id="15AYqAVxinwd7Ld809hT-5" value="" style="ellipse;whiteSpace=wrap;html=1;aspect=fixed;fontSize=5;fillColor=#000000;" vertex="1" parent="1">
          <mxGeometry x="7901" y="18599" width="20" height="20" as="geometry" />
        </mxCell>
        <mxCell id="15AYqAVxinwd7Ld809hT-6" value="&lt;font style=&quot;font-size: 7px;&quot;&gt;NO&lt;/font&gt;" style="text;html=1;strokeColor=none;fillColor=none;align=center;verticalAlign=middle;whiteSpace=wrap;rounded=0;fontSize=5;" vertex="1" parent="1">
          <mxGeometry x="7847" y="18588" width="60" height="30" as="geometry" />
        </mxCell>
        <mxCell id="15AYqAVxinwd7Ld809hT-7" value="USER" style="shape=cylinder3;whiteSpace=wrap;html=1;boundedLbl=1;backgroundOutline=1;size=15;fontSize=7;fillColor=#d80073;fontColor=#ffffff;strokeColor=#A50040;" vertex="1" parent="1">
          <mxGeometry x="7668" y="18650" width="50" height="50" as="geometry" />
        </mxCell>
        <mxCell id="15AYqAVxinwd7Ld809hT-8" value="" style="endArrow=classic;html=1;rounded=0;fontSize=7;" edge="1" parent="1">
          <mxGeometry width="50" height="50" relative="1" as="geometry">
            <mxPoint x="7720" y="18680" as="sourcePoint" />
            <mxPoint x="7840" y="18680" as="targetPoint" />
          </mxGeometry>
        </mxCell>
        <mxCell id="15AYqAVxinwd7Ld809hT-9" value="" style="ellipse;whiteSpace=wrap;html=1;aspect=fixed;fontSize=5;fillColor=#000000;" vertex="1" parent="1">
          <mxGeometry x="7750" y="18735" width="20" height="20" as="geometry" />
        </mxCell>
        <mxCell id="15AYqAVxinwd7Ld809hT-11" value="&lt;font style=&quot;font-size: 5px;&quot;&gt;USER ID&lt;/font&gt;" style="ellipse;whiteSpace=wrap;html=1;fontSize=8;fillColor=#0050ef;fontColor=#ffffff;strokeColor=#001DBC;" vertex="1" parent="1">
          <mxGeometry x="7740" y="18664" width="40" height="30" as="geometry" />
        </mxCell>
        <mxCell id="15AYqAVxinwd7Ld809hT-12" value="" style="endArrow=classic;html=1;rounded=0;fontSize=7;" edge="1" parent="1">
          <mxGeometry width="50" height="50" relative="1" as="geometry">
            <mxPoint x="7759.64" y="18695" as="sourcePoint" />
            <mxPoint x="7759.64" y="18735" as="targetPoint" />
          </mxGeometry>
        </mxCell>
        <mxCell id="15AYqAVxinwd7Ld809hT-13" value="&lt;font style=&quot;font-size: 7px;&quot;&gt;ACTIVE&lt;br&gt;FCM TOKEN&lt;br&gt;&lt;/font&gt;" style="text;html=1;strokeColor=none;fillColor=none;align=center;verticalAlign=middle;whiteSpace=wrap;rounded=0;fontSize=5;" vertex="1" parent="1">
          <mxGeometry x="7774" y="18656" width="60" height="30" as="geometry" />
        </mxCell>
        <mxCell id="15AYqAVxinwd7Ld809hT-14" value="&lt;font style=&quot;font-size: 7px;&quot;&gt;NO&lt;/font&gt;" style="text;html=1;strokeColor=none;fillColor=none;align=center;verticalAlign=middle;whiteSpace=wrap;rounded=0;fontSize=5;rotation=90;" vertex="1" parent="1">
          <mxGeometry x="7736" y="18696" width="60" height="30" as="geometry" />
        </mxCell>
      </root>
    </mxGraphModel>
  </diagram>
</mxfile>
